# Made in Blockbench 4.8.3
mtllib CapCain.mtl

o cube
v 0.11002746957985676 0.27880531217345794 -0.1882847369821835
v 0.04797745570761158 0.23096988312782174 -0.2856837488173868
v 0.16143138416250202 0.04783542904563631 -0.10759675365442578
v 0.09938137029025684 1.1102230246251565e-16 -0.20499576548962917
v 0.04797745570761158 0.23096988312782174 -0.2856837488173868
v 0.11002746957985676 0.27880531217345794 -0.1882847369821835
v 0.09938137029025684 1.1102230246251565e-16 -0.20499576548962917
v 0.16143138416250202 0.04783542904563631 -0.10759675365442578
vt 0 0.5
vt 0 0.5
vt 0 1
vt 0 1
vt 0.5 0.5
vt 0.5 0.375
vt 0 0.375
vt 0 0.5
vt 0 0.5
vt 0 0.5
vt 0 1
vt 0 1
vt 0.5 0.875
vt 0.5 1
vt 1 1
vt 1 0.875
vt 0 0.875
vt 0 0.875
vt 0 1
vt 0 1
vt 0 1
vt 0 1
vt 0 0.875
vt 0 0.875
vn -0.4964001109779611 -0.3826834323650898 -0.7791920946816271
vn 0.8433914458128858 0 -0.537299608346824
vn 0.4964001109779611 0.3826834323650898 0.7791920946816271
vn -0.8433914458128858 0 0.537299608346824
vn -0.20561565833058099 0.9238795325112868 -0.3227519333110307
vn 0.20561565833058099 -0.9238795325112868 0.3227519333110307
usemtl m_7c1288e7-d625-3025-fc5d-28f01c023d0a
f 4/4/1 7/3/1 5/2/1 2/1/1
f 3/8/2 4/7/2 2/6/2 1/5/2
f 8/12/3 3/11/3 1/10/3 6/9/3
f 7/16/4 8/15/4 6/14/4 5/13/4
f 6/20/5 1/19/5 2/18/5 5/17/5
f 7/24/6 4/23/6 3/22/6 8/21/6
o cube
v 0.2748853377524162 0.23096988312782185 0.07049022549575912
v 0.212835323880171 0.27880531217345805 -0.02690878633944427
v 0.22348142316977093 1.1102230246251565e-16 -0.010197757831998555
v 0.16143140929752575 0.04783542904563631 -0.10759676966720194
v 0.212835323880171 0.27880531217345805 -0.02690878633944427
v 0.2748853377524162 0.23096988312782185 0.07049022549575912
v 0.16143140929752575 0.04783542904563631 -0.10759676966720194
v 0.22348142316977093 1.1102230246251565e-16 -0.010197757831998555
vt 0 0.5
vt 0 0.5
vt 0 1
vt 0 1
vt 0.5 0.5
vt 0.5 0.375
vt 0 0.375
vt 0 0.5
vt 0 0.5
vt 0 0.5
vt 0 1
vt 0 1
vt 0.5 0.875
vt 0.5 1
vt 1 1
vt 1 0.875
vt 0 0.875
vt 0 0.875
vt 0 1
vt 0 1
vt 0 1
vt 0 1
vt 0 0.875
vt 0 0.875
vn -0.4964001109779611 0.3826834323650898 -0.7791920946816271
vn 0.8433914458128858 0 -0.537299608346824
vn 0.4964001109779611 -0.3826834323650898 0.7791920946816271
vn -0.8433914458128858 0 0.537299608346824
vn 0.20561565833058099 0.9238795325112868 0.3227519333110307
vn -0.20561565833058099 -0.9238795325112868 -0.3227519333110307
usemtl m_7c1288e7-d625-3025-fc5d-28f01c023d0a
f 12/28/7 15/27/7 13/26/7 10/25/7
f 11/32/8 12/31/8 10/30/8 9/29/8
f 16/36/9 11/35/9 9/34/9 14/33/9
f 15/40/10 16/39/10 14/38/10 13/37/10
f 14/44/11 9/43/11 10/42/11 13/41/11
f 15/48/12 12/47/12 11/46/12 16/45/12
o cube
v -0.20624432259997544 0.27880531217345794 0.013202616147875434
v -0.26829433647222056 0.23096988312782174 -0.08419639568732784
v -0.15484040801733012 0.04783542904563631 0.09389059947563316
v -0.2168904218895753 1.1102230246251565e-16 -0.0035084123595702232
v -0.26829433647222056 0.23096988312782174 -0.08419639568732784
v -0.20624432259997544 0.27880531217345794 0.013202616147875434
v -0.2168904218895753 1.1102230246251565e-16 -0.0035084123595702232
v -0.15484040801733012 0.04783542904563631 0.09389059947563316
vt 0 0.5
vt 0 0.5
vt 0 1
vt 0 1
vt 0.5 0.5
vt 0.5 0.375
vt 0 0.375
vt 0 0.5
vt 0 0.5
vt 0 0.5
vt 0 1
vt 0 1
vt 0.5 0.875
vt 0.5 1
vt 1 1
vt 1 0.875
vt 0 0.875
vt 0 0.875
vt 0 1
vt 0 1
vt 0 1
vt 0 1
vt 0 0.875
vt 0 0.875
vn -0.4964001109779611 -0.3826834323650898 -0.7791920946816271
vn 0.8433914458128858 0 -0.537299608346824
vn 0.4964001109779611 0.3826834323650898 0.7791920946816271
vn -0.8433914458128858 0 0.537299608346824
vn -0.20561565833058099 0.9238795325112868 -0.3227519333110307
vn 0.20561565833058099 -0.9238795325112868 0.3227519333110307
usemtl m_7c1288e7-d625-3025-fc5d-28f01c023d0a
f 20/52/13 23/51/13 21/50/13 18/49/13
f 19/56/14 20/55/14 18/54/14 17/53/14
f 24/60/15 19/59/15 17/58/15 22/57/15
f 23/64/16 24/63/16 22/62/16 21/61/16
f 22/68/17 17/67/17 18/66/17 21/65/17
f 23/72/18 20/71/18 19/70/18 24/69/18
o cube
v 0.11009305903476085 0.2787475463540512 -0.1882981516340012
v 0.04804304516251556 0.230912117308415 -0.2856971634692046
v 0.11009305903476085 0.2787475463540512 -0.1882981516340012
v 0.04804304516251556 0.230912117308415 -0.2856971634692046
v -0.26822874701731647 0.230912117308415 -0.08420981033914565
v -0.20617873314507135 0.2787475463540512 0.013189201496057734
v -0.26822874701731647 0.230912117308415 -0.08420981033914565
v -0.20617873314507135 0.2787475463540512 0.013189201496057734
vt 0 1
vt 0.375 1
vt 0.375 1
vt 0 1
vt 0 0.875
vt 0 1
vt 0 1
vt 0 0.875
vt 0.375 1
vt 0 1
vt 0 1
vt 0.375 1
vt 0 1
vt 0 0.875
vt 0 0.875
vt 0 1
vt 0.375 0.375
vt 0.75 0.375
vt 0.75 0.25
vt 0.375 0.25
vt 0.375 0.25
vt 0 0.25
vt 0 0.375
vt 0.375 0.375
vn -0.4964001109779611 -0.3826834323650898 -0.7791920946816271
vn 0.8433914458128858 0 -0.537299608346824
vn 0.4964001109779611 0.3826834323650898 0.7791920946816271
vn -0.8433914458128858 0 0.537299608346824
vn -0.20561565833058099 0.9238795325112868 -0.3227519333110307
vn 0.20561565833058099 -0.9238795325112868 0.3227519333110307
usemtl m_7c1288e7-d625-3025-fc5d-28f01c023d0a
f 28/76/19 31/75/19 29/74/19 26/73/19
f 27/80/20 28/79/20 26/78/20 25/77/20
f 32/84/21 27/83/21 25/82/21 30/81/21
f 31/88/22 32/87/22 30/86/22 29/85/22
f 30/92/23 25/91/23 26/90/23 29/89/23
f 31/96/24 28/95/24 27/94/24 32/93/24
o cube
v -0.04138645442741601 0.23096988312782185 0.27197757862581806
v -0.10343646829966113 0.27880531217345805 0.17457856679061468
v -0.09279036901006127 1.1102230246251565e-16 0.19128959529806044
v -0.1548403828823064 0.04783542904563631 0.09389058346285706
v -0.10343646829966113 0.27880531217345805 0.17457856679061468
v -0.04138645442741601 0.23096988312782185 0.27197757862581806
v -0.1548403828823064 0.04783542904563631 0.09389058346285706
v -0.09279036901006127 1.1102230246251565e-16 0.19128959529806044
vt 0 1
vt 0 1
vt 0 0.5
vt 0 0.5
vt 0 0.375
vt 0 0.5
vt 0.5 0.5
vt 0.5 0.375
vt 0 1
vt 0 1
vt 0 0.5
vt 0 0.5
vt 1 1
vt 1 0.875
vt 0.5 0.875
vt 0.5 1
vt 0 1
vt 0 1
vt 0 0.875
vt 0 0.875
vt 0 0.875
vt 0 0.875
vt 0 1
vt 0 1
vn -0.4964001109779611 0.3826834323650898 -0.7791920946816271
vn 0.8433914458128858 0 -0.537299608346824
vn 0.4964001109779611 -0.3826834323650898 0.7791920946816271
vn -0.8433914458128858 0 0.537299608346824
vn 0.20561565833058099 0.9238795325112868 0.3227519333110307
vn -0.20561565833058099 -0.9238795325112868 -0.3227519333110307
usemtl m_7c1288e7-d625-3025-fc5d-28f01c023d0a
f 36/100/25 39/99/25 37/98/25 34/97/25
f 35/104/26 36/103/26 34/102/26 33/101/26
f 40/108/27 35/107/27 33/106/27 38/105/27
f 39/112/28 40/111/28 38/110/28 37/109/28
f 38/116/29 33/115/29 34/114/29 37/113/29
f 39/120/30 36/119/30 35/118/30 40/117/30
o cube
v 0.27492518972221525 0.230912117308415 0.07043646655164149
v 0.21287517584997007 0.2787475463540512 -0.026962545283561956
v 0.27492518972221525 0.230912117308415 0.07043646655164149
v 0.21287517584997007 0.2787475463540512 -0.026962545283561956
v -0.10339661632986197 0.2787475463540512 0.17452480784649693
v -0.04134660245761684 0.230912117308415 0.27192381968170043
v -0.10339661632986197 0.2787475463540512 0.17452480784649693
v -0.04134660245761684 0.230912117308415 0.27192381968170043
vt 0 1
vt 0.375 1
vt 0.375 1
vt 0 1
vt 0 0.875
vt 0 1
vt 0 1
vt 0 0.875
vt 0.375 1
vt 0 1
vt 0 1
vt 0.375 1
vt 0 1
vt 0 0.875
vt 0 0.875
vt 0 1
vt 0.375 0.375
vt 0.75 0.375
vt 0.75 0.25
vt 0.375 0.25
vt 0.375 0.25
vt 0 0.25
vt 0 0.375
vt 0.375 0.375
vn -0.4964001109779611 0.3826834323650898 -0.7791920946816271
vn 0.8433914458128858 0 -0.537299608346824
vn 0.4964001109779611 -0.3826834323650898 0.7791920946816271
vn -0.8433914458128858 0 0.537299608346824
vn 0.20561565833058099 0.9238795325112868 0.3227519333110307
vn -0.20561565833058099 -0.9238795325112868 -0.3227519333110307
usemtl m_7c1288e7-d625-3025-fc5d-28f01c023d0a
f 44/124/31 47/123/31 45/122/31 42/121/31
f 43/128/32 44/127/32 42/126/32 41/125/32
f 48/132/33 43/131/33 41/130/33 46/129/33
f 47/136/34 48/135/34 46/134/34 45/133/34
f 46/140/35 41/139/35 42/138/35 45/137/35
f 47/144/36 44/143/36 43/142/36 48/141/36